<svg xmlns="http://www.w3.org/2000/svg" width="135" height="50" viewBox="0 0 135 50"><polyline points="0.63,2.48 1.43,0.63 2.23,1.32 3.03,3.56 3.83,5.32 4.63,5.59 5.43,7.01 6.23,7.85 7.03,5.95 7.83,5.65 8.63,7.33 9.43,6.96 10.24,8.24 11.04,20.52 11.84,19.56 12.64,21.38 13.44,22.1 14.24,21.95 15.04,22.87 15.84,22.94 16.64,19.86 17.44,16.51 18.24,15.61 19.05,17.57 19.85,19.51 20.65,20.55 21.45,19.21 22.25,19.81 23.05,18.84 23.85,13.02 24.65,14 25.45,13.38 26.25,15.43 27.05,14.69 27.86,14.47 28.66,19.49 29.46,18.61 30.26,16.43 31.06,18.65 31.86,20.31 32.66,21.75 33.46,21.06 34.26,20.72 35.06,18.89 35.86,19.1 36.67,19.22 37.47,19.07 38.27,22.27 39.07,22.55 39.87,22 40.67,22.41 41.47,22.58 42.27,22.58 43.07,19.99 43.87,21.21 44.67,21.42 45.48,20.72 46.28,14.08 47.08,13 47.88,15.71 48.68,15.08 49.48,16.47 50.28,17.33 51.08,16.36 51.88,15.16 52.68,15.66 53.48,15.65 54.29,16.73 55.09,15.42 55.89,15.83 56.69,17.69 57.49,20.67 58.29,20.7 59.09,21.03 59.89,23.57 60.69,22.05 61.49,22.31 62.29,24.06 63.1,24.86 63.9,34.23 64.7,40.19 65.5,35.04 66.3,34.29 67.1,36.64 67.9,42.72 68.7,41.36 69.5,40.44 70.3,38.55 71.1,39.1 71.9,38.04 72.71,38.13 73.51,38.85 74.31,36.06 75.11,37.56 75.91,33.42 76.71,30.06 77.51,31.4 78.31,35.83 79.11,42.62 79.91,39.62 80.71,39.95 81.52,41.17 82.32,41.15 83.12,41.28 83.92,46.98 84.72,49.38 85.52,46.3 86.32,44.84 87.12,41.76 87.92,43.95 88.72,43.66 89.52,45.46 90.33,45.55 91.13,46.58 91.93,46.59 92.73,45.42 93.53,46.27 94.33,46.86 95.13,45.17 95.93,39.25 96.73,40.03 97.53,35.87 98.33,32.8 99.14,35.01 99.94,34.58 100.74,38.79 101.54,38.37 102.34,38.3 103.14,39.24 103.94,33.99 104.74,35.28 105.54,36.65 106.34,35.34 107.14,29.81 107.95,28.07 108.75,26.35 109.55,28.29 110.35,27.08 111.15,28.82 111.95,27.06 112.75,26.39 113.55,21.59 114.35,21.4 115.15,19.6 115.95,20.01 116.76,22.06 117.56,18.09 118.36,19.24 119.16,16.18 119.96,18.27 120.76,24.03 121.56,21.14 122.36,24.46 123.16,23.92 123.96,24.09 124.76,21.54 125.57,21.74 126.37,23.97 127.17,23.15 127.97,23.88 128.77,26.14 129.57,26.74 130.37,26.4 131.17,27.28 131.97,26.81 132.77,27.07 133.57,26.27 134.38,25.87" fill="none" stroke="#C9A96E" stroke-width="1.25" stroke-opacity="1"/></svg>