<svg xmlns="http://www.w3.org/2000/svg" width="135" height="50" viewBox="0 0 135 50"><polyline points="0.63,13.43 1.43,30.4 2.23,42.08 3.03,30.62 3.83,26.01 4.63,35.3 5.43,38.81 6.23,41.31 7.03,40.19 7.83,41.4 8.63,44.39 9.43,33.59 10.24,36.5 11.04,33.5 11.84,39.63 12.64,31.85 13.44,30.72 14.24,33.58 15.04,37.16 15.84,36.94 16.64,40.37 17.44,0.63 18.24,35.46 19.05,34.53 19.85,39.34 20.65,39.37 21.45,38.2 22.25,31.68 23.05,25.57 23.85,30.09 24.65,34.27 25.45,32.64 26.25,39.56 27.05,49.15 27.86,27.84 28.66,31.93 29.46,32.72 30.26,45.35 31.06,37.48 31.86,42.18 32.66,33.76 33.46,35.57 34.26,35 35.06,26.6 35.86,35.39 36.67,33.49 37.47,29.4 38.27,37.12 39.07,37.46 39.87,39.08 40.67,39.33 41.47,29.8 42.27,22.94 43.07,41.34 43.87,39.18 44.67,34.73 45.48,31.56 46.28,32.55 47.08,30.43 47.88,32.47 48.68,48.58 49.48,45.83 50.28,39.32 51.08,37.79 51.88,32.34 52.68,35.94 53.48,34.7 54.29,40.78 55.09,33.68 55.89,31.78 56.69,38.08 57.49,33.73 58.29,24.32 59.09,27.66 59.89,23.79 60.69,37.14 61.49,38.66 62.29,29.4 63.1,36.21 63.9,35.85 64.7,30.86 65.5,36.87 66.3,46.75 67.1,33.88 67.9,35.67 68.7,29.41 69.5,33.05 70.3,35.22 71.1,31.99 71.9,36.74 72.71,30.88 73.51,34.24 74.31,29.11 75.11,24.43 75.91,33.76 76.71,32.2 77.51,24.33 78.31,13.26 79.11,29.46 79.91,31.2 80.71,49.38 81.52,25.65 82.32,29.4 83.12,24.86 83.92,27.16 84.72,19.15 85.52,28.07 86.32,32.21 87.12,32.77 87.92,35.47 88.72,39.49 89.52,37.8 90.33,34.52 91.13,23.94 91.93,32.97 92.73,40.05 93.53,48.45 94.33,24.67 95.13,26.02 95.93,26.18 96.73,34.65 97.53,37.98 98.33,33.11 99.14,30.91 99.94,31.66 100.74,25.88 101.54,38.84 102.34,22.3 103.14,34.57 103.94,33.51 104.74,33.71 105.54,19.19 106.34,20.89 107.14,36.56 107.95,25.7 108.75,34.9 109.55,34.92 110.35,37.48 111.15,28.59 111.95,28.59 112.75,30.53 113.55,42.76 114.35,34.43 115.15,36.16 115.95,36.36 116.76,45.7 117.56,45.7 118.36,42.52 119.16,29.27 119.96,6.42 120.76,24.56 121.56,35.36 122.36,49.23 123.16,41.52 123.96,44.88 124.76,44.44 125.57,42.86 126.37,31.21 127.17,36.69 127.97,32.82 128.77,28.7 129.57,26.58 130.37,45.07 131.17,41.69 131.97,27.34 132.77,31.8 133.57,36.19 134.38,49.35" fill="none" stroke="#C9A96E" stroke-width="1.25" stroke-opacity="1"/></svg>