<svg xmlns="http://www.w3.org/2000/svg" width="135" height="50" viewBox="0 0 135 50"><polyline points="0.63,48.45 1.43,48.09 2.23,48.35 3.03,48.57 3.83,48.84 4.63,48.78 5.43,48.81 6.23,48.57 7.03,48.78 7.83,49.38 8.63,49.14 9.43,48.88 10.24,49.11 11.04,49.35 11.84,49.32 12.64,48.86 13.44,48.83 14.24,48.71 15.04,48.73 15.84,48.71 16.64,48.54 17.44,47.16 18.24,46.74 19.05,46.94 19.85,46.75 20.65,46.71 21.45,47.28 22.25,46.85 23.05,46.55 23.85,47.05 24.65,46.92 25.45,45.77 26.25,46.09 27.05,45.29 27.86,45.77 28.66,46.17 29.46,45.94 30.26,45.68 31.06,46.01 31.86,46.41 32.66,46.66 33.46,46.79 34.26,47.55 35.06,47.14 35.86,47.12 36.67,46.86 37.47,46.79 38.27,47.84 39.07,48.02 39.87,47.79 40.67,47.91 41.47,47.73 42.27,47.99 43.07,46.99 43.87,46.9 44.67,46.43 45.48,46.38 46.28,46.19 47.08,46.08 47.88,44.02 48.68,42.51 49.48,42.85 50.28,43.31 51.08,43.01 51.88,42.75 52.68,42.86 53.48,42.46 54.29,42.87 55.09,42.91 55.89,42.66 56.69,42.47 57.49,43.98 58.29,43.82 59.09,43.37 59.89,44.08 60.69,43.87 61.49,43.47 62.29,43.59 63.1,43.12 63.9,43.52 64.7,46.48 65.5,45.38 66.3,45.48 67.1,45.44 67.9,45.54 68.7,45.02 69.5,44.38 70.3,44.5 71.1,44.63 71.9,44.8 72.71,43.65 73.51,43.67 74.31,38.82 75.11,39.78 75.91,39.3 76.71,38.37 77.51,38.31 78.31,37.19 79.11,37.39 79.91,37.71 80.71,37.75 81.52,37.12 82.32,36.95 83.12,34.79 83.92,35.83 84.72,35.93 85.52,36.34 86.32,36.42 87.12,35.59 87.92,36.78 88.72,36.42 89.52,37.01 90.33,36.52 91.13,37.56 91.93,37.38 92.73,37.34 93.53,38.17 94.33,38.8 95.13,38.23 95.93,37.41 96.73,36.97 97.53,37.69 98.33,37.44 99.14,37.22 99.94,36.57 100.74,37.3 101.54,36.25 102.34,36.3 103.14,36.01 103.94,35.44 104.74,34.1 105.54,15.69 106.34,15.97 107.14,15.31 107.95,14.09 108.75,15.96 109.55,15.89 110.35,16.16 111.15,17.99 111.95,16.69 112.75,17.65 113.55,15.58 114.35,15.81 115.15,16.53 115.95,14.56 116.76,15.67 117.56,14.86 118.36,15.07 119.16,3.15 119.96,0.63 120.76,4.36 121.56,3.12 122.36,5.98 123.16,6.27 123.96,4.81 124.76,4.83 125.57,4.51 126.37,5.29 127.17,5.58 127.97,5.53 128.77,6.02 129.57,6.96 130.37,6.24 131.17,9.28 131.97,8.69 132.77,8.63 133.57,6.8 134.38,4.02" fill="none" stroke="#C9A96E" stroke-width="1.25" stroke-opacity="1"/></svg>