<svg xmlns="http://www.w3.org/2000/svg" width="135" height="50" viewBox="0 0 135 50"><polyline points="0.63,47.38 1.43,47.82 2.23,47.95 3.03,47.73 3.83,47.63 4.63,48.97 5.43,49.16 6.23,48.86 7.03,49.38 7.83,48.33 8.63,48.15 9.43,48.33 10.24,47.49 11.04,47.96 11.84,48.76 12.64,48.1 13.44,48.37 14.24,48.23 15.04,48.78 15.84,48.34 16.64,47.82 17.44,47.78 18.24,47.91 19.05,48.06 19.85,47.18 20.65,47.59 21.45,42.4 22.25,41.72 23.05,41.85 23.85,40.69 24.65,41.05 25.45,39.51 26.25,38.23 27.05,39.4 27.86,41.1 28.66,40.02 29.46,39.97 30.26,38.89 31.06,40.37 31.86,39.48 32.66,39.35 33.46,39.34 34.26,38.89 35.06,40.1 35.86,39.53 36.67,39.64 37.47,39.91 38.27,40.74 39.07,40.61 39.87,40.87 40.67,42.28 41.47,41.98 42.27,41.95 43.07,40.74 43.87,40.44 44.67,41.12 45.48,41.25 46.28,40.35 47.08,40.84 47.88,41.12 48.68,39.84 49.48,39.51 50.28,39.52 51.08,39.79 51.88,39.55 52.68,33.31 53.48,32.65 54.29,33.31 55.09,32.89 55.89,33.84 56.69,34.15 57.49,33.85 58.29,34.23 59.09,34.04 59.89,34.52 60.69,33.56 61.49,33.68 62.29,34.29 63.1,33.56 63.9,34.42 64.7,33.98 65.5,34.15 66.3,32.27 67.1,28.91 67.9,30.14 68.7,30.82 69.5,30.47 70.3,30.68 71.1,29.29 71.9,29.95 72.71,29.65 73.51,30.14 74.31,30.64 75.11,31.11 75.91,31.02 76.71,31.84 77.51,32.1 78.31,34.31 79.11,33.73 79.91,33.14 80.71,32.52 81.52,32 82.32,32.67 83.12,32.81 83.92,33.01 84.72,32.19 85.52,31.93 86.32,32.44 87.12,30.8 87.92,30.69 88.72,30.33 89.52,28.44 90.33,29.74 91.13,31.94 91.93,31.98 92.73,32.04 93.53,31.02 94.33,30.37 95.13,30.1 95.93,30.3 96.73,30 97.53,29.77 98.33,30.67 99.14,29.85 99.94,30.76 100.74,30.31 101.54,30.48 102.34,29.53 103.14,30.28 103.94,30.06 104.74,29.93 105.54,28.84 106.34,25.63 107.14,26.68 107.95,25.97 108.75,24.32 109.55,25.04 110.35,24.92 111.15,25.34 111.95,25.78 112.75,26.81 113.55,26.49 114.35,26.05 115.15,26.52 115.95,26.12 116.76,25.2 117.56,24.45 118.36,22.44 119.16,19.72 119.96,12.3 120.76,13.33 121.56,17.92 122.36,16.9 123.16,14.63 123.96,13.53 124.76,15.9 125.57,16.05 126.37,15.72 127.17,17.87 127.97,16.99 128.77,17.33 129.57,15.48 130.37,15.02 131.17,12.08 131.97,8.77 132.77,9.25 133.57,0.63 134.38,2.59" fill="none" stroke="#C9A96E" stroke-width="1.25" stroke-opacity="1"/></svg>