<svg xmlns="http://www.w3.org/2000/svg" width="135" height="50" viewBox="0 0 135 50"><polyline points="0.63,49.38 1.43,49.29 2.23,49.32 3.03,49.29 3.83,49.02 4.63,46.84 5.43,45.92 6.23,45.11 7.03,44.74 7.83,44.69 8.63,44.58 9.43,44.7 10.24,44.98 11.04,45.3 11.84,46.52 12.64,46.86 13.44,47.63 14.24,47.21 15.04,46.92 15.84,47 16.64,47.45 17.44,47.34 18.24,47.28 19.05,47.23 19.85,47.24 20.65,47.56 21.45,47.65 22.25,47.66 23.05,47.68 23.85,46.87 24.65,46.21 25.45,45.76 26.25,45.61 27.05,44.65 27.86,43.59 28.66,43.96 29.46,43.86 30.26,43.66 31.06,44.9 31.86,45.28 32.66,45.21 33.46,44.59 34.26,44.72 35.06,44.18 35.86,43.73 36.67,43.91 37.47,43.75 38.27,43.27 39.07,42.53 39.87,42.22 40.67,42.12 41.47,41.6 42.27,42.47 43.07,41.19 43.87,38.64 44.67,37.52 45.48,36.25 46.28,37.09 47.08,37.15 47.88,38.12 48.68,37.15 49.48,36.68 50.28,36.44 51.08,36.66 51.88,36.84 52.68,36.87 53.48,36.41 54.29,36.4 55.09,37.63 55.89,36.39 56.69,36.79 57.49,36.03 58.29,36.46 59.09,35.92 59.89,35.44 60.69,35.42 61.49,35.36 62.29,35.66 63.1,35.47 63.9,36.26 64.7,37.94 65.5,38.17 66.3,37.81 67.1,37.6 67.9,37.9 68.7,39.19 69.5,40.7 70.3,40.16 71.1,40.98 71.9,41.91 72.71,42.1 73.51,42.18 74.31,41.96 75.11,42.19 75.91,41.27 76.71,39.68 77.51,40.17 78.31,41.17 79.11,41.02 79.91,42.43 80.71,42.31 81.52,42.28 82.32,43 83.12,42.89 83.92,43.04 84.72,42.61 85.52,42.19 86.32,42.48 87.12,42.7 87.92,42.81 88.72,42.59 89.52,42.45 90.33,42.58 91.13,42.98 91.93,43.52 92.73,43.22 93.53,42.19 94.33,41.56 95.13,38.62 95.93,38.75 96.73,38.1 97.53,39.17 98.33,39.56 99.14,39.5 99.94,39.74 100.74,39.22 101.54,34.29 102.34,36.76 103.14,36.02 103.94,37.88 104.74,37.09 105.54,37.13 106.34,36.53 107.14,37.07 107.95,37.09 108.75,35.01 109.55,34.72 110.35,34.21 111.15,33.63 111.95,32.74 112.75,32.77 113.55,32.87 114.35,32.64 115.15,23.47 115.95,21.97 116.76,22.86 117.56,23.35 118.36,20.92 119.16,13.28 119.96,18.27 120.76,18.08 121.56,18.93 122.36,18.61 123.16,19.2 123.96,18.18 124.76,15.67 125.57,13.9 126.37,10.68 127.17,13.55 127.97,10.97 128.77,0.63 129.57,2.41 130.37,5.51 131.17,7.5 131.97,7.25 132.77,10.55 133.57,12.33 134.38,11.42" fill="none" stroke="#C9A96E" stroke-width="1.25" stroke-opacity="1"/></svg>